HIERARCHY
ROOT Hips
{
	OFFSET 0.000000 0.000000 0.000000
	CHANNELS 6 Xposition Yposition Zposition Xrotation Yrotation Zrotation
	JOINT LeftUpLeg_virtual
	{
		OFFSET 0.000000 0.000000 0.000000
		CHANNELS 3 Xrotation Yrotation Zrotation
		JOINT LeftUpLeg
		{
			OFFSET 13.026900 -6.336304 -1.092800
			CHANNELS 3 Xrotation Yrotation Zrotation
			JOINT LeftLeg
			{
				OFFSET 0.524474 -46.096886 9.782700
				CHANNELS 3 Xrotation Yrotation Zrotation
				JOINT LeftFoot
				{
					OFFSET -0.524474 -53.427422 -12.948200
					CHANNELS 3 Xrotation Yrotation Zrotation
					JOINT LeftToeBase
					{
						OFFSET 0.192200 -14.009700 16.364100
						CHANNELS 3 Xrotation Yrotation Zrotation
						JOINT LeftToe_End
						{
							OFFSET -1.784700 -0.561700 9.474800
							CHANNELS 3 Xrotation Yrotation Zrotation
							End Site
							{
								OFFSET 0 0 0
							}
						}
					}
				}
			}
		}
	}
	JOINT RightUpLeg_virtual
	{
		OFFSET 0.000000 0.000000 0.000000
		CHANNELS 3 Xrotation Yrotation Zrotation
		JOINT RightUpLeg
		{
			OFFSET -12.883000 -6.336304 -1.092800
			CHANNELS 3 Xrotation Yrotation Zrotation
			JOINT RightLeg
			{
				OFFSET -0.524587 -46.096825 9.782800
				CHANNELS 3 Xrotation Yrotation Zrotation
				JOINT RightFoot
				{
					OFFSET 0.524587 -53.427383 -12.948300
					CHANNELS 3 Xrotation Yrotation Zrotation
					JOINT RightToeBase
					{
						OFFSET -0.192200 -14.009700 16.364100
						CHANNELS 3 Xrotation Yrotation Zrotation
						JOINT RightToe_End
						{
							OFFSET 1.784700 -0.561700 9.474800
							CHANNELS 3 Xrotation Yrotation Zrotation
							End Site
							{
								OFFSET 0 0 0
							}
						}
					}
				}
			}
		}
	}
	JOINT Spine_virtual
	{
		OFFSET 0.000000 0.000000 0.000000
		CHANNELS 3 Xrotation Yrotation Zrotation
		JOINT Spine
		{
			OFFSET 0.072000 7.257294 -0.789700
			CHANNELS 3 Xrotation Yrotation Zrotation
			JOINT Spine1
			{
				OFFSET 0.000000 12.508769 -0.658067
				CHANNELS 3 Xrotation Yrotation Zrotation
				JOINT Spine1_split
				{
					OFFSET 0.000000 12.508769 -0.658067
					CHANNELS 3 Xrotation Yrotation Zrotation
					JOINT Spine2
					{
						OFFSET 0.000000 12.508769 -0.658067
						CHANNELS 3 Xrotation Yrotation Zrotation
						JOINT Neck_virtual
						{
							OFFSET 0.000000 0.000000 0.000000
							CHANNELS 3 Xrotation Yrotation Zrotation
							JOINT Neck
							{
								OFFSET 0.000000 14.033295 7.520400
								CHANNELS 3 Xrotation Yrotation Zrotation
								JOINT Head
								{
									OFFSET 0.000000 8.198502 5.703100
									CHANNELS 3 Xrotation Yrotation Zrotation
									JOINT HeadTop_End
									{
										OFFSET 0.000000 17.760803 13.332701
										CHANNELS 3 Xrotation Yrotation Zrotation
										End Site
										{
											OFFSET 0 0 0
										}
									}
								}
							}
						}
						JOINT LeftShoulder_virtual
						{
							OFFSET 0.000000 0.000000 0.000000
							CHANNELS 3 Xrotation Yrotation Zrotation
							JOINT LeftShoulder
							{
								OFFSET 6.292450 5.785301 -0.669000
								CHANNELS 3 Xrotation Yrotation Zrotation
								JOINT LeftShoulder_split
								{
									OFFSET 6.292450 5.785301 -0.669000
									CHANNELS 3 Xrotation Yrotation Zrotation
									JOINT LeftArm
									{
										OFFSET 13.907140 -6.093903 1.965100
										CHANNELS 3 Xrotation Yrotation Zrotation
										JOINT LeftForeArm
										{
											OFFSET 34.140198 0.000000 0.000000
											CHANNELS 3 Xrotation Yrotation Zrotation
											JOINT LeftHand
											{
												OFFSET 40.960209 0.000000 0.000000
												CHANNELS 3 Xrotation Yrotation Zrotation
												End Site
												{
													OFFSET 0 0 0
												}
											}
										}
									}
								}
							}
						}
						JOINT RightShoulder_virtual
						{
							OFFSET 0.000000 0.000000 0.000000
							CHANNELS 3 Xrotation Yrotation Zrotation
							JOINT RightShoulder
							{
								OFFSET -6.292450 5.785301 -0.669000
								CHANNELS 3 Xrotation Yrotation Zrotation
								JOINT RightShoulder_split
								{
									OFFSET -6.292450 5.785301 -0.669000
									CHANNELS 3 Xrotation Yrotation Zrotation
									JOINT RightArm
									{
										OFFSET -13.907140 -6.093903 1.965100
										CHANNELS 3 Xrotation Yrotation Zrotation
										JOINT RightForeArm
										{
											OFFSET -34.140198 0.000000 0.000000
											CHANNELS 3 Xrotation Yrotation Zrotation
											JOINT RightHand
											{
												OFFSET -40.960209 0.000000 0.000000
												CHANNELS 3 Xrotation Yrotation Zrotation
												End Site
												{
													OFFSET 0 0 0
												}
											}
										}
									}
								}
							}
						}
					}
				}
			}
		}
	}
}
MOTION
Frames: 9
Frame Time: 0.03333333
-0.922115 96.472115 -0.106495 0.000000 0.000000 0.000000 1.689347 -62.553618 5.002480 -34.065387 4.595278 27.892517 40.881366 -6.355520 -6.996392 -5.333349 -1.845599 -8.805529 -0.774445 0.417139 0.169818 0.000000 0.000000 0.000000 0.369685 -61.875695 4.548808 -32.011881 -6.722778 -28.632771 48.295854 7.290330 -5.089267 -16.754024 0.406507 24.288638 2.598781 0.073577 0.299003 0.000000 0.000000 0.000000 0.869044 -60.340726 4.592357 11.457404 0.622613 -2.403479 9.064434 -0.836781 -5.521517 1.182197 -4.483236 1.337843 0.000000 0.000000 0.000000 9.996770 -0.541174 -5.476415 -18.669110 19.230893 13.251608 -3.600804 26.716242 -2.316596 0.000000 0.000000 0.000000 9.589054 -0.825318 -5.069722 -5.827056 -10.842155 -4.149405 -0.256273 -3.227269 -1.335631 -18.604433 8.292798 -31.507697 3.903281 -38.158901 2.805507 0.000000 0.000000 0.000000 9.206550 -0.907360 -5.512865 -6.024022 7.511618 3.431945 1.075409 0.297627 1.864173 -40.265133 -18.703621 34.135390 -161.237380 64.728214 161.668597 0.000000 0.000000 0.000000 
-1.015891 96.362709 0.223431 0.000000 0.000000 0.000000 1.442517 -62.802073 4.706002 -34.106369 4.912158 28.140627 41.232455 -6.604980 -6.997785 -5.553758 -1.949853 -8.863359 -0.942627 0.418819 0.230216 0.000000 0.000000 0.000000 0.193811 -61.802885 4.289691 -31.716885 -6.791364 -28.424022 48.494493 7.069942 -5.013809 -16.809282 0.230751 23.898103 2.323268 0.089697 0.325845 0.000000 0.000000 0.000000 0.294587 -60.109380 4.000547 11.305105 0.539651 -2.459045 8.807146 -0.826235 -5.596467 0.962697 -3.473965 1.087236 0.000000 0.000000 0.000000 9.219101 -0.534359 -5.580838 -18.055124 19.014499 12.787276 -2.494377 26.090925 -1.862603 0.000000 0.000000 0.000000 9.320293 -0.836894 -5.248137 -5.708699 -10.698905 -4.444526 -0.587225 -2.383076 -1.704627 -18.686846 7.711478 -31.700100 4.124207 -38.472786 3.001922 0.000000 0.000000 0.000000 9.030553 -0.856544 -5.642113 -5.974591 7.514892 3.925495 1.321738 0.657819 2.607795 -38.823741 -18.753785 34.996892 -159.219960 65.995105 159.704590 0.000000 0.000000 0.000000 
-1.210491 96.431656 0.495102 0.000000 0.000000 0.000000 0.881077 -63.078846 3.905134 -34.230364 5.479156 28.652930 41.739050 -7.018810 -6.951855 -5.903659 -2.122504 -8.926637 -1.030846 0.444781 0.248219 0.000000 0.000000 0.000000 -0.283536 -61.775359 3.537168 -31.096376 -7.074331 -28.003186 48.287269 6.861832 -4.925350 -16.526056 0.065937 23.665403 1.813451 0.089170 0.339826 0.000000 0.000000 0.000000 -0.346092 -59.843577 3.096356 10.927411 0.572549 -2.431312 8.149390 -0.666443 -5.741097 0.682061 -2.593695 0.743654 0.000000 0.000000 0.000000 7.950560 -0.353649 -5.787406 -16.852273 18.467838 12.412684 0.089438 23.645080 -0.326935 0.000000 0.000000 0.000000 8.651680 -0.720595 -5.494191 -5.681320 -10.444796 -4.791121 -1.357742 -1.573629 -1.893686 -18.796039 6.817711 -32.310169 3.315468 -38.972469 2.376216 0.000000 0.000000 0.000000 8.434969 -0.615860 -5.773783 -5.871802 7.285482 4.742858 1.585275 1.074367 2.282984 -37.099446 -17.956567 36.377987 -155.540128 68.420956 156.032256 0.000000 0.000000 0.000000 
-1.427322 96.716484 0.603622 0.000000 0.000000 0.000000 0.143141 -63.287782 2.787627 -34.327172 6.170751 29.286851 42.041167 -7.470293 -6.869477 -6.156613 -2.305250 -9.000510 -1.124602 0.488565 0.220444 0.000000 0.000000 0.000000 -0.826647 -61.778576 2.551735 -30.247944 -7.564543 -27.440608 47.423745 6.693596 -4.823973 -15.938882 -0.043043 23.586354 1.269823 0.080728 0.351130 0.000000 0.000000 0.000000 -0.901498 -59.646116 2.106518 10.390658 0.726165 -2.336021 7.226474 -0.378323 -5.905549 0.454740 -1.699314 0.454320 0.000000 0.000000 0.000000 6.474169 -0.003347 -6.004779 -15.526096 17.806510 12.100105 3.368268 20.149543 1.945358 0.000000 0.000000 0.000000 7.693714 -0.474392 -5.739377 -5.728044 -10.088451 -5.071157 -2.300189 -0.906200 -1.837514 -18.865321 5.781111 -33.189812 1.913617 -39.940405 1.206544 0.000000 0.000000 0.000000 7.503454 -0.243287 -5.871611 -5.676993 6.811747 5.602194 1.833526 1.202320 1.308883 -35.640228 -16.541646 38.114030 -149.974712 71.242001 150.416366 0.000000 0.000000 0.000000 
-1.582428 97.233109 0.629021 0.000000 0.000000 0.000000 -0.612565 -63.480188 1.584505 -34.326574 6.880783 29.916789 41.832600 -7.816075 -6.788012 -6.070375 -2.448226 -9.021836 -1.292055 0.529750 0.168367 0.000000 0.000000 0.000000 -1.305500 -61.813485 1.554919 -29.328098 -8.229248 -26.813521 45.828363 6.547978 -4.707106 -15.054604 -0.065175 23.599381 0.977819 0.078207 0.369934 0.000000 0.000000 0.000000 -1.174482 -59.605599 1.283726 9.795053 0.981427 -2.219303 6.197869 -0.022403 -6.024153 0.406992 -1.201964 0.503735 0.000000 0.000000 0.000000 5.086599 0.424355 -6.159628 -14.816021 17.262999 11.665675 6.145788 16.597363 4.361799 0.000000 0.000000 0.000000 6.634059 -0.147705 -5.876203 -5.792309 -9.665712 -5.063537 -3.186431 -0.188158 -1.960311 -18.808388 4.886273 -34.208968 0.552578 -41.186806 0.002128 0.000000 0.000000 0.000000 6.403761 0.183603 -5.881881 -5.430394 6.204458 6.195046 1.999042 1.286321 0.473903 -34.574141 -14.821548 40.085967 -142.342959 73.936402 142.666068 0.000000 0.000000 0.000000 
-1.637757 97.961914 0.565868 0.000000 0.000000 0.000000 -1.118050 -63.681289 0.611204 -34.231791 7.499657 30.454956 41.040892 -7.991881 -6.722869 -5.536865 -2.539220 -8.945848 -1.415725 0.553589 0.096714 0.000000 0.000000 0.000000 -1.587417 -61.962219 0.737946 -28.561380 -8.984970 -26.190138 43.654208 6.392369 -4.561083 -13.924812 -0.028496 23.647408 1.034988 0.082573 0.408631 0.000000 0.000000 0.000000 -1.183962 -59.830722 0.706187 9.271707 1.277771 -2.126841 5.223561 0.332333 -6.056185 0.318130 -1.208682 0.977477 0.000000 0.000000 0.000000 4.066275 0.848159 -6.179393 -15.289010 17.084062 10.980241 7.487742 14.022856 6.030135 0.000000 0.000000 0.000000 5.703083 0.184172 -5.853466 -5.823649 -9.175882 -4.594774 -3.734919 0.554396 -2.179469 -18.587772 4.041938 -35.378549 -0.148054 -42.509257 -0.743008 0.000000 0.000000 0.000000 5.351618 0.566768 -5.802134 -5.161642 5.604078 6.318655 2.173475 1.437117 0.028377 -33.945764 -13.213109 42.090556 -132.887382 76.116147 133.042987 0.000000 0.000000 0.000000 
-1.581451 98.757607 0.398643 0.000000 0.000000 0.000000 -1.384780 -63.930004 -0.093479 -34.092059 8.057333 30.960127 39.904878 -8.077798 -6.691425 -4.676823 -2.622220 -8.782230 -1.426546 0.553059 0.017923 0.000000 0.000000 0.000000 -1.750357 -62.271395 0.129959 -28.104552 -9.682927 -25.632865 41.413213 6.261637 -4.419661 -12.696237 0.071319 23.653430 1.290674 0.097394 0.438924 0.000000 0.000000 0.000000 -1.076810 -60.192627 0.318496 8.920584 1.575054 -2.095766 4.487435 0.634038 -5.992406 0.268259 -1.516178 1.374592 0.000000 0.000000 0.000000 3.557243 1.167087 -6.049765 -17.137836 17.420992 10.020836 7.088119 12.942134 6.316558 0.000000 0.000000 0.000000 5.052538 0.471494 -5.677962 -5.813697 -8.660160 -3.751656 -4.039709 1.175482 -2.636398 -18.231817 3.043823 -36.530430 0.218481 -43.687741 -0.662853 0.000000 0.000000 0.000000 4.519933 0.847878 -5.659683 -4.896119 5.248575 5.913941 2.338897 1.497430 0.232425 -33.578282 -12.055887 43.842728 -121.986769 77.681012 121.944299 0.000000 0.000000 0.000000 
-1.400006 99.419586 0.192787 0.000000 0.000000 0.000000 -1.547506 -64.200773 -0.632713 -34.037920 8.536317 31.468164 38.792090 -8.155790 -6.690058 -3.871067 -2.725736 -8.550948 -1.310318 0.533302 -0.043653 0.000000 0.000000 0.000000 -1.972280 -62.726005 -0.413941 -28.025776 -10.181713 -25.144669 39.727416 6.144390 -4.315185 -11.556736 0.190845 23.602456 1.536740 0.117208 0.439235 0.000000 0.000000 0.000000 -1.011029 -60.650523 -0.031417 8.803008 1.823302 -2.115652 4.105447 0.814581 -5.849575 0.493920 -2.014462 1.579184 0.000000 0.000000 0.000000 3.561639 1.293685 -5.811761 -20.125328 18.250983 8.941702 5.075730 13.450076 5.183524 0.000000 0.000000 0.000000 4.818298 0.641375 -5.394232 -5.748202 -8.185516 -2.602404 -4.241694 1.655381 -3.279198 -18.008842 1.943168 -37.441434 1.465511 -44.220810 0.215099 0.000000 0.000000 0.000000 4.144072 0.984362 -5.482787 -4.670400 5.332129 5.024797 2.408239 1.612094 0.853048 -33.355191 -11.661058 44.885182 -112.213670 78.586442 111.955318 0.000000 0.000000 0.000000 
-1.098274 99.752266 -0.123611 0.000000 0.000000 0.000000 -1.747704 -64.422802 -1.127643 -34.183830 8.848214 31.966231 38.188339 -8.336410 -6.693138 -3.459258 -2.876078 -8.371002 -1.127238 0.504501 -0.064794 0.000000 0.000000 0.000000 -2.380272 -63.112792 -1.047018 -28.254727 -10.362794 -24.689162 39.100419 6.054205 -4.293713 -10.789842 0.260881 23.445429 1.635162 0.131569 0.412852 0.000000 0.000000 0.000000 -1.265942 -61.163463 -0.559116 8.917745 1.983611 -2.147401 4.110851 0.848852 -5.678857 0.832931 -2.515685 1.561889 0.000000 0.000000 0.000000 4.004315 1.236294 -5.516230 -23.580431 19.424530 8.118124 2.111199 15.301060 3.051076 0.000000 0.000000 0.000000 5.027050 0.683466 -5.091287 -5.645253 -7.821599 -1.363326 -4.215267 1.753834 -3.732901 -18.193722 0.776879 -37.975924 3.051054 -44.070597 1.454102 0.000000 0.000000 0.000000 4.270575 0.961394 -5.329235 -4.471604 5.856293 3.829244 2.452444 1.744447 1.509110 -33.344912 -12.279639 44.848525 -108.527922 78.901007 108.061748 0.000000 0.000000 0.000000 
